<?xml version="1.0" standalone="no"?>
<!DOCTYPE svg PUBLIC "-//W3C//DTD SVG 20010904//EN"
 "http://www.w3.org/TR/2001/REC-SVG-20010904/DTD/svg10.dtd">
<svg version="1.0" xmlns="http://www.w3.org/2000/svg"
 width="500.000000pt" height="500.000000pt" viewBox="0 0 500.000000 500.000000"
 preserveAspectRatio="xMidYMid meet">
<metadata>
Created by potrace 1.14, written by Peter Selinger 2001-2017
</metadata>
<g transform="translate(0.000000,500.000000) scale(0.100000,-0.100000)"
fill="#000000" stroke="none">
<path d="M0 2500 l0 -2500 2500 0 2500 0 0 2500 0 2500 -2500 0 -2500 0 0
-2500z m1073 618 c80 -30 103 -49 128 -103 17 -37 19 -73 19 -432 l0 -393 -90
0 c-53 0 -90 4 -90 10 0 6 -18 10 -40 10 l-40 0 0 175 0 175 -245 0 -245 0 0
-185 0 -185 -90 0 c-49 0 -90 4 -90 9 0 6 -17 11 -37 13 l-38 3 0 395 c0 353
2 398 17 426 21 39 81 92 111 98 12 3 31 7 42 10 11 3 155 3 320 2 293 -3 302
-4 368 -28z m541 12 c6 -6 23 -10 38 -10 l28 0 2 -357 3 -358 338 -3 c213 -1
337 -6 337 -12 0 -6 16 -10 35 -10 l35 0 0 -95 0 -95 -379 0 c-392 0 -453 5
-532 46 -42 21 -76 69 -88 124 -12 58 -16 772 -3 784 10 11 174 -2 186 -14z
m1879 -12 c80 -30 111 -56 132 -112 13 -35 15 -90 13 -367 -3 -325 -3 -326
-27 -361 -13 -19 -40 -46 -59 -59 -35 -24 -36 -24 -350 -27 -267 -3 -324 -1
-381 14 -83 20 -112 35 -144 74 -42 50 -49 113 -45 433 3 252 5 296 20 323 21
39 81 92 111 98 12 3 31 7 42 10 11 3 155 3 320 2 293 -3 302 -4 368 -28z
m1285 12 c2 -6 19 -10 38 -10 l34 0 0 -434 0 -435 -24 -27 c-26 -32 -68 -36
-146 -15 -40 10 -75 42 -306 272 l-261 261 -6 -39 c-4 -21 -7 -145 -7 -275 l0
-238 -90 0 c-49 0 -90 4 -90 9 0 6 -17 11 -37 13 l-38 3 -3 410 c-2 274 1 422
8 448 14 48 48 71 97 64 106 -14 103 -12 380 -289 l263 -263 0 276 c0 152 3
279 8 283 10 11 176 -2 180 -14z"/>
<path d="M474 2927 c-3 -8 -4 -45 -2 -83 l3 -69 243 -3 242 -2 0 85 0 85 -240
0 c-193 0 -242 -3 -246 -13z"/>
<path d="M2895 2927 c-3 -7 -4 -127 -3 -267 l3 -255 243 -3 242 -2 0 270 0
270 -240 0 c-185 0 -242 -3 -245 -13z"/>
</g>
</svg>
